<?xml version="1.0" encoding="UTF-8"?>
<svg width="874.93" height="68.182" version="1.1" viewBox="0 0 231.49 18.04" xmlns="http://www.w3.org/2000/svg" xmlns:cc="http://creativecommons.org/ns#" xmlns:dc="http://purl.org/dc/elements/1.1/" xmlns:rdf="http://www.w3.org/1999/02/22-rdf-syntax-ns#">
 <metadata>
  <rdf:RDF>
   <cc:Work rdf:about="">
    <dc:format>image/svg+xml</dc:format>
    <dc:type rdf:resource="http://purl.org/dc/dcmitype/StillImage"/>
    <dc:title/>
   </cc:Work>
  </rdf:RDF>
 </metadata>
 <g stroke-width=".26458" aria-label="codeWithShashank">
  <g fill="#fff">
   <path d="m6.7734 17.95q-1.9417 0-3.4996-0.79023-1.5353-0.81281-2.4158-2.2352-0.85796-1.4224-0.85796-3.2287 0-1.8062 0.85796-3.2287 0.88054-1.4224 2.4158-2.2126 1.5579-0.81281 3.4996-0.81281 1.9191 0 3.3415 0.81281 1.445 0.79023 2.0998 2.2804l-2.7319 1.4676q-0.94828-1.6708-2.7319-1.6708-1.3773 0-2.2804 0.90312-0.90312 0.90312-0.90312 2.461t0.90312 2.461q0.90312 0.90312 2.2804 0.90312 1.8062 0 2.7319-1.6708l2.7319 1.4901q-0.65476 1.445-2.0998 2.2578-1.4224 0.81281-3.3415 0.81281z"/>
   <path d="m19.869 17.95q-1.9191 0-3.4544-0.79023-1.5127-0.81281-2.3707-2.2352t-0.85796-3.2287q0-1.8062 0.85796-3.2287 0.85796-1.4224 2.3707-2.2126 1.5353-0.81281 3.4544-0.81281t3.4319 0.81281q1.5127 0.79023 2.3707 2.2126 0.85796 1.4224 0.85796 3.2287 0 1.8062-0.85796 3.2287t-2.3707 2.2352q-1.5127 0.79023-3.4319 0.79023zm0-2.89q1.3547 0 2.2126-0.90312 0.88054-0.9257 0.88054-2.461t-0.88054-2.4384q-0.85796-0.9257-2.2126-0.9257t-2.2352 0.9257q-0.88054 0.90312-0.88054 2.4384t0.88054 2.461q0.88054 0.90312 2.2352 0.90312z"/>
   <path d="m41.25 1.016v16.753h-3.3641v-1.3998q-1.3095 1.5805-3.7931 1.5805-1.7159 0-3.1158-0.76765-1.3773-0.76765-2.1675-2.1901t-0.79023-3.2964q0-1.874 0.79023-3.2964 0.79023-1.4224 2.1675-2.1901 1.3998-0.76765 3.1158-0.76765 2.3255 0 3.6351 1.4676v-5.8929zm-6.5476 14.044q1.3321 0 2.2126-0.90312 0.88054-0.9257 0.88054-2.461t-0.88054-2.4384q-0.88054-0.9257-2.2126-0.9257-1.3547 0-2.2352 0.9257-0.88054 0.90312-0.88054 2.4384t0.88054 2.461q0.88054 0.90312 2.2352 0.90312z"/>
   <path d="m56.4 11.741q0 0.06773-0.06773 0.94828h-9.1892q0.24836 1.1289 1.1741 1.7837t2.303 0.65476q0.94828 0 1.6708-0.27094 0.74507-0.29351 1.3773-0.90312l1.874 2.032q-1.7159 1.9643-5.0123 1.9643-2.0546 0-3.6351-0.79023-1.5805-0.81281-2.4384-2.2352t-0.85796-3.2287q0-1.7837 0.83539-3.2061 0.85796-1.445 2.3255-2.2352 1.4901-0.81281 3.319-0.81281 1.7837 0 3.2287 0.76765 1.445 0.76765 2.2578 2.2126 0.83539 1.4224 0.83539 3.319zm-6.2993-3.6351q-1.1966 0-2.0094 0.67734-0.81281 0.67734-0.99343 1.8514h5.9832q-0.18062-1.1515-0.99343-1.8288-0.81281-0.69992-1.9869-0.69992z"/>
  </g>
  <g fill="#269fe6" stroke-width=".26458">
   <path d="m82.884 1.9643-5.1704 15.805h-3.9286l-3.477-10.702-3.5899 10.702h-3.906l-5.1929-15.805h3.7931l3.5673 11.108 3.7254-11.108h3.3867l3.6125 11.199 3.6802-11.199z"/>
   <path d="m84.893 5.6219h3.5222v12.147h-3.5222zm1.7611-1.6934q-0.97085 0-1.5805-0.56445-0.60961-0.56445-0.60961-1.3998 0-0.83539 0.60961-1.3998 0.60961-0.56445 1.5805-0.56445t1.5805 0.54187q0.60961 0.54187 0.60961 1.3547 0 0.88054-0.60961 1.4676-0.60961 0.56445-1.5805 0.56445z"/>
   <path d="m99.524 17.182q-0.51929 0.38383-1.2869 0.58703-0.74507 0.18062-1.5805 0.18062-2.1675 0-3.3641-1.1063-1.1741-1.1063-1.1741-3.2512v-4.9897h-1.874v-2.7094h1.874v-2.9577h3.5222v2.9577h3.0255v2.7094h-3.0255v4.9446q0 0.76765 0.38383 1.1966 0.4064 0.4064 1.1289 0.4064 0.83539 0 1.4224-0.45156z"/>
   <path d="m108.89 5.4413q2.2578 0 3.635 1.3547 1.3998 1.3547 1.3998 4.0189v6.954h-3.5222v-6.4122q0-1.445-0.63218-2.1449-0.63219-0.7225-1.8288-0.7225-1.3321 0-2.1223 0.83539-0.79023 0.81281-0.79023 2.4384v6.0057h-3.5222v-16.753h3.5222v5.8703q0.69992-0.69992 1.6934-1.0612 0.99343-0.38383 2.1675-0.38383z"/>
  </g>
  <g fill="#d34545" stroke-width=".26458">
   <path d="m122.55 18.04q-1.874 0-3.6351-0.49672-1.7385-0.51929-2.7997-1.3321l1.2418-2.7545q1.016 0.74507 2.4158 1.1966 1.3998 0.45156 2.7997 0.45156 1.5579 0 2.303-0.45156 0.74508-0.47414 0.74508-1.2418 0-0.56445-0.45156-0.9257-0.42898-0.38383-1.1289-0.60961-0.67734-0.22578-1.8514-0.49672-1.8062-0.42898-2.9577-0.85796-1.1515-0.42898-1.9869-1.3773-0.81281-0.94828-0.81281-2.5287 0-1.3773 0.74508-2.4836 0.74507-1.1289 2.2352-1.7837 1.5127-0.65476 3.6802-0.65476 1.5127 0 2.9577 0.36125t2.5287 1.0386l-1.1289 2.7771q-2.1901-1.2418-4.3801-1.2418-1.5353 0-2.2804 0.49672-0.7225 0.49672-0.7225 1.3095 0 0.81281 0.83539 1.2192 0.85796 0.38383 2.5965 0.76765 1.8062 0.42898 2.9577 0.85796 1.1515 0.42898 1.9643 1.3547 0.83539 0.9257 0.83539 2.5062 0 1.3547-0.76766 2.4836-0.74507 1.1063-2.2578 1.7611-1.5127 0.65476-3.6802 0.65476z"/>
   <path d="m138.9 5.4413q2.2578 0 3.6351 1.3547 1.3998 1.3547 1.3998 4.0189v6.954h-3.5222v-6.4122q0-1.445-0.63219-2.1449-0.63218-0.7225-1.8288-0.7225-1.3321 0-2.1223 0.83539-0.79023 0.81281-0.79023 2.4384v6.0057h-3.5222v-16.753h3.5222v5.8703q0.69992-0.69992 1.6934-1.0612 0.99343-0.38383 2.1675-0.38383z"/>
   <path d="m152.02 5.4413q2.8222 0 4.335 1.3547 1.5127 1.3321 1.5127 4.0415v6.9314h-3.2964v-1.5127q-0.99343 1.6934-3.7028 1.6934-1.3998 0-2.4384-0.47414-1.016-0.47414-1.5579-1.3095t-0.54187-1.8966q0-1.6934 1.2644-2.6642 1.2869-0.97085 3.9512-0.97085h2.7997q0-1.1515-0.69992-1.7611-0.69992-0.63218-2.0998-0.63218-0.97086 0-1.9191 0.31609-0.9257 0.29351-1.5805 0.81281l-1.2644-2.461q0.99343-0.69992 2.3707-1.0837 1.3998-0.38383 2.8674-0.38383zm-0.27093 10.138q0.90312 0 1.603-0.4064 0.69991-0.42898 0.99343-1.2418v-1.2418h-2.4158q-2.1675 0-2.1675 1.4224 0 0.67734 0.5193 1.0837 0.54187 0.38383 1.4676 0.38383z"/>
   <path d="m165.14 17.95q-1.5127 0-2.9577-0.36125-1.445-0.38383-2.303-0.94828l1.174-2.5287q0.81281 0.51929 1.9643 0.85796 1.1515 0.31609 2.2578 0.31609 2.2352 0 2.2352-1.1063 0-0.51929-0.60961-0.74507-0.6096-0.22578-1.874-0.38383-1.4902-0.22578-2.461-0.51929-0.97086-0.29351-1.6934-1.0386-0.69992-0.74507-0.69992-2.1223 0-1.1515 0.65476-2.032 0.67734-0.90312 1.9417-1.3998 1.287-0.49672 3.0254-0.49672 1.287 0 2.5513 0.29351 1.2869 0.27094 2.1223 0.76765l-1.1741 2.5062q-1.603-0.90312-3.4996-0.90312-1.1289 0-1.6934 0.31609t-0.56445 0.81281q0 0.56445 0.60961 0.79023 0.6096 0.22578 1.9417 0.42898 1.4901 0.24836 2.4384 0.54187 0.94828 0.27094 1.6482 1.016 0.69992 0.74507 0.69992 2.0772 0 1.1289-0.67734 2.0094t-1.9869 1.3773q-1.287 0.47414-3.0706 0.47414z"/>
   <path d="m180.42 5.4413q2.2578 0 3.6351 1.3547 1.3998 1.3547 1.3998 4.0189v6.954h-3.5222v-6.4122q0-1.445-0.63218-2.1449-0.63219-0.7225-1.8288-0.7225-1.3321 0-2.1223 0.83539-0.79023 0.81281-0.79023 2.4384v6.0057h-3.5222v-16.753h3.5222v5.8703q0.69991-0.69992 1.6934-1.0612 0.99343-0.38383 2.1675-0.38383z"/>
   <path d="m193.54 5.4413q2.8222 0 4.335 1.3547 1.5127 1.3321 1.5127 4.0415v6.9314h-3.2964v-1.5127q-0.99343 1.6934-3.7028 1.6934-1.3998 0-2.4384-0.47414-1.016-0.47414-1.5579-1.3095-0.54188-0.83539-0.54188-1.8966 0-1.6934 1.2644-2.6642 1.287-0.97085 3.9512-0.97085h2.7997q0-1.1515-0.69992-1.7611-0.69991-0.63218-2.0998-0.63218-0.97085 0-1.9191 0.31609-0.9257 0.29351-1.5805 0.81281l-1.2644-2.461q0.99343-0.69992 2.3707-1.0837 1.3998-0.38383 2.8674-0.38383zm-0.27094 10.138q0.90312 0 1.603-0.4064 0.69992-0.42898 0.99343-1.2418v-1.2418h-2.4158q-2.1675 0-2.1675 1.4224 0 0.67734 0.51929 1.0837 0.54187 0.38383 1.4676 0.38383z"/>
   <path d="m209.95 5.4413q2.2578 0 3.635 1.3547 1.3998 1.3547 1.3998 4.0189v6.954h-3.5222v-6.4122q0-1.445-0.63218-2.1449-0.63219-0.7225-1.8288-0.7225-1.3321 0-2.1223 0.83539-0.79023 0.81281-0.79023 2.4384v6.0057h-3.5222v-12.147h3.3641v1.4224q0.69992-0.76765 1.7385-1.1741 1.0386-0.42898 2.2804-0.42898z"/>
   <path d="m223.39 13.005-1.6934 1.6708v3.0932h-3.5222v-16.753h3.5222v9.4828l5.1478-4.8768h4.1995l-5.0575 5.1478 5.509 6.9992h-4.2672z"/>
  </g>
 </g>
</svg>
