<?xml version="1.0" encoding="UTF-8"?>
<svg width="36" height="36" version="1.1" viewBox="0 0 36 36" xmlns="http://www.w3.org/2000/svg" xmlns:cc="http://creativecommons.org/ns#" xmlns:dc="http://purl.org/dc/elements/1.1/" xmlns:rdf="http://www.w3.org/1999/02/22-rdf-syntax-ns#">
 <metadata>
  <rdf:RDF>
   <cc:Work rdf:about="">
    <dc:format>image/svg+xml</dc:format>
    <dc:type rdf:resource="http://purl.org/dc/dcmitype/StillImage"/>
    <dc:title/>
   </cc:Work>
  </rdf:RDF>
 </metadata>
 <path d="m0 36v-36h36v36z" fill="#ffd600"/>
 <path d="m23.538 26.947c0.692 1.124 1.444 2.201 3.037 2.201 1.338 0 2.04-0.665 2.04-1.585 0-1.101-0.726-1.492-2.198-2.133l-0.807-0.344c-2.329-0.988-3.878-2.226-3.878-4.841 0-2.41 1.845-4.244 4.728-4.244 2.053 0 3.528 0.711 4.592 2.573l-2.514 1.607c-0.553-0.988-1.151-1.377-2.078-1.377-0.946 0-1.545 0.597-1.545 1.377 0 0.964 0.6 1.354 1.985 1.951l0.807 0.344c2.745 1.169 4.293 2.363 4.293 5.047 0 2.892-2.284 4.477-5.35 4.477-2.999 0-4.702-1.505-5.65-3.368zm-11.586 0.082c0.506 0.906 1.275 1.603 2.381 1.603 1.058 0 1.667-0.418 1.667-2.043v-10.589h3.333v11.101c0 3.367-1.953 4.899-4.805 4.899-2.577 0-4.437-1.746-5.195-3.368z" fill="#000001"/>
</svg>
