<?xml version="1.0" encoding="UTF-8"?>
<svg enable-background="new 0 0 477.867 477.867" version="1.1" viewBox="0 0 477.87 477.87" xml:space="preserve" xmlns="http://www.w3.org/2000/svg" xmlns:cc="http://creativecommons.org/ns#" xmlns:dc="http://purl.org/dc/elements/1.1/" xmlns:rdf="http://www.w3.org/1999/02/22-rdf-syntax-ns#"><metadata><rdf:RDF><cc:Work rdf:about=""><dc:format>image/svg+xml</dc:format><dc:type rdf:resource="http://purl.org/dc/dcmitype/StillImage"/><dc:title/></cc:Work></rdf:RDF></metadata>
<g fill="#fff">
	<g fill="#fff">
		<path d="m238.93 0c-131.96 0-238.93 106.97-238.93 238.93s106.97 238.93 238.93 238.93 238.93-106.97 238.93-238.93c-0.14-131.9-107.03-238.79-238.93-238.93zm0 443.73c-113.11 0-204.8-91.692-204.8-204.8s91.692-204.8 204.8-204.8 204.8 91.692 204.8 204.8c-0.122 113.06-91.742 204.68-204.8 204.8z" fill="#fff"/>
	</g>
</g>
<g fill="#fff">
	<g fill="#fff">
		<path d="m339.56 231.32c-1.654-3.318-4.343-6.008-7.662-7.662l-136.53-68.267c-8.432-4.213-18.682-0.794-22.896 7.638-1.185 2.371-1.801 4.986-1.8 7.637v136.53c-4e-3 9.426 7.633 17.07 17.059 17.075 2.651 1e-3 5.266-0.615 7.637-1.8l136.53-68.267c8.436-4.204 11.867-14.452 7.662-22.888zm-134.76 48.266v-81.306l81.306 40.653-81.306 40.653z" fill="#fff"/>
	</g>
</g>















</svg>
