<?xml version="1.0" encoding="UTF-8"?>
<svg width="72" height="72" version="1.1" viewBox="0 0 36 36" xmlns="http://www.w3.org/2000/svg" xmlns:cc="http://creativecommons.org/ns#" xmlns:dc="http://purl.org/dc/elements/1.1/" xmlns:rdf="http://www.w3.org/1999/02/22-rdf-syntax-ns#">
 <metadata>
  <rdf:RDF>
   <cc:Work rdf:about="">
    <dc:format>image/svg+xml</dc:format>
    <dc:type rdf:resource="http://purl.org/dc/dcmitype/StillImage"/>
    <dc:title/>
   </cc:Work>
  </rdf:RDF>
 </metadata>
 <rect width="36" height="36" fill="#1976d2"/>
 <polygon transform="translate(-6,-6)" points="18.984 40 22.753 40 22.753 25.264 27.49 25.264 27.49 22 14.227 22 14.227 25.264 18.984 25.264" fill="#fff"/>
 <path d="m33.194 20.084s-1.787-1.192-3.807-1.192-2.747 0.96-2.747 1.986c0 2.648 7.381 2.383 7.381 7.712 0 8.209-11.254 4.568-11.254 4.568v-3.938s2.152 1.622 4.733 1.622 2.483-1.688 2.483-1.92c0-2.449-7.315-2.449-7.315-7.878 0-7.381 10.658-4.469 10.658-4.469z" fill="#fff"/>
</svg>
